{"title":"Alpha 2018 CAM Rip x264 [MW]","magnet":"magnet:?xt=urn:btih:28cd663cc62b932e444206dbbfea64d3b8ba3b43&dn=Alpha+2018+CAM+Rip+x264+%5BMW%5D&tr=udp%3A%2F%2Ftracker.leechers-paradise.org%3A6969&tr=udp%3A%2F%2Fzer0day.ch%3A1337&tr=udp%3A%2F%2Fopen.demonii.com%3A1337&tr=udp%3A%2F%2Ftracker.coppersurfer.tk%3A6969&tr=udp%3A%2F%2Fexodus.desync.com%3A6969","uploader":"MFreaky","categoryP":"video","categoryS":"movies","size":"936957375","seeders":"19","leechers":"37","description":" <a href=\"https://pichub.site/image/Sa3sY\" rel=\"nofollow\" target=\"_NEW\">https://pichub.site/image/Sa3sY</a> <a href=\"\nhttps://pichub.site/image/SaH54\" rel=\"nofollow\" target=\"_NEW\">\nhttps://pichub.site/image/SaH54</a> <a href=\"\nhttps://pichub.site/image/Sa9zt\" rel=\"nofollow\" target=\"_NEW\">\nhttps://pichub.site/image/Sa9zt</a> <a href=\"\nhttps://pichub.site/image/SaTjp\" rel=\"nofollow\" target=\"_NEW\">\nhttps://pichub.site/image/SaTjp</a> <a href=\"\nhttps://pichub.site/image/SaWxb\" rel=\"nofollow\" target=\"_NEW\">\nhttps://pichub.site/image/SaWxb</a> <a href=\"\nhttps://pichub.site/image/SaQwy\" rel=\"nofollow\" target=\"_NEW\">\nhttps://pichub.site/image/SaQwy</a>\r\n\r\nVideo\r\nID                                       : 1\r\nFormat                                   : AVC\r\nFormat/Info                              : Advanced Video Codec\r\nFormat profile                           : High@L4.1\r\nFormat settings                          : CABAC / 4 Ref Frames\r\nFormat settings, CABAC                   : Yes\r\nFormat settings, RefFrames               : 4 frames\r\nCodec ID                                 : V_MPEG4/ISO/AVC\r\nDuration                                 : 1 h 29 min\r\nBit rate                                 : 1 200 kb/s\r\nWidth                                    : 1 072 pixels\r\nHeight                                   : 376 pixels\r\nDisplay aspect ratio                     : 2.851\r\nFrame rate mode                          : Constant\r\nFrame rate                               : 29.970 (30000/1001) FPS\r\nColor space                              : YUV\r\nChroma subsampling                       : 4:2:0\r\nBit depth                                : 8 bits\r\nScan type                                : Progressive\r\nBits/(Pixel*Frame)                       : 0.099\r\nStream size                              : 769 MiB (86%)\r\nWriting library                          : x264 core 155 r2901 7d0ff22\r\nDefault                                  : Yes\r\nForced                                   : No\r\n\r\nAudio\r\nID                                       : 2\r\nFormat                                   : AAC\r\nFormat/Info                              : Advanced Audio Codec\r\nFormat profile                           : LC\r\nCodec ID                                 : A_AAC-2\r\nDuration                                 : 1 h 29 min\r\nBit rate                                 : 192 kb/s\r\nChannel(s)                               : 2 channels\r\nChannel positions                        : Front: L R\r\nSampling rate                            : 48.0 kHz\r\nFrame rate                               : 46.875 FPS (1024 SPF)\r\nCompression mode                         : Lossy\r\nStream size                              : 123 MiB (14%)\r\nLanguage                                 : English\r\nDefault                                  : Yes\r\nForced                                   : No","last_updated":"2018-08-19T12:05:48.483Z","parsed":{"xt":"urn:btih:28cd663cc62b932e444206dbbfea64d3b8ba3b43","dn":"Alpha 2018 CAM Rip x264 [MW]","tr":["udp://exodus.desync.com:6969","udp://open.demonii.com:1337","udp://tracker.coppersurfer.tk:6969","udp://tracker.leechers-paradise.org:6969","udp://zer0day.ch:1337"],"infoHash":"28cd663cc62b932e444206dbbfea64d3b8ba3b43","infoHashBuffer":{"type":"Buffer","data":[40,205,102,60,198,43,147,46,68,66,6,219,191,234,100,211,184,186,59,67]},"name":"Alpha 2018 CAM Rip x264 [MW]","announce":["udp://exodus.desync.com:6969","udp://open.demonii.com:1337","udp://tracker.coppersurfer.tk:6969","udp://tracker.leechers-paradise.org:6969","udp://zer0day.ch:1337"],"urlList":[]}}